<?xml version="1.0" standalone="no"?>
<!DOCTYPE svg PUBLIC "-//W3C//DTD SVG 20010904//EN"
 "http://www.w3.org/TR/2001/REC-SVG-20010904/DTD/svg10.dtd">
<svg version="1.0" xmlns="http://www.w3.org/2000/svg"
 width="640.000000pt" height="1280.000000pt" viewBox="0 0 640.000000 1280.000000"
 preserveAspectRatio="xMidYMid meet">
<metadata>
Created by potrace 1.15, written by Peter Selinger 2001-2017
</metadata>
<g transform="translate(0.000000,1280.000000) scale(0.100000,-0.100000)"
fill="#000000" stroke="none">
<path d="M2738 12745 c132 -161 196 -243 253 -330 70 -106 179 -297 179 -313
0 -5 -18 -47 -39 -93 -103 -220 -150 -620 -137 -1169 9 -399 34 -827 66 -1140
18 -170 40 -366 50 -444 25 -195 29 -224 36 -263 6 -37 3 -46 -26 -82 -48 -60
-113 -81 -244 -81 -90 0 -107 3 -136 23 -70 47 -125 198 -159 435 -34 232 -41
389 -41 879 0 260 -1 473 -3 473 -19 0 -115 -36 -153 -57 -62 -34 -157 -106
-182 -138 -11 -14 -22 -25 -25 -25 -7 0 -34 118 -52 227 l-13 78 -1 -65 c-1
-36 4 -119 10 -185 l12 -120 -31 -55 c-17 -30 -38 -80 -47 -110 -64 -219 -59
-668 14 -1175 6 -38 13 -85 17 -102 5 -24 3 -33 -7 -33 -9 0 -8 -4 3 -12 9 -8
25 -55 37 -110 50 -234 135 -430 225 -522 54 -55 117 -89 204 -112 63 -17 249
-18 324 -3 105 21 184 42 247 65 35 13 66 23 67 21 9 -8 50 -3384 42 -3393 -8
-7 -1456 111 -1465 120 -6 6 31 1298 43 1487 l6 95 203 130 c112 71 202 130
201 132 -3 2 -163 -73 -345 -162 -30 -14 -56 -24 -58 -23 -2 2 4 197 12 433
l15 428 -22 46 c-29 57 -91 104 -176 131 -54 17 -92 22 -197 22 -168 0 -225
-13 -275 -65 -21 -21 -47 -59 -57 -83 -10 -25 -20 -45 -23 -45 -3 1 -32 38
-65 83 -79 108 -335 437 -341 437 -2 0 29 -53 68 -117 39 -65 124 -211 188
-326 l117 -207 -13 -85 c-33 -206 -35 -684 -4 -1055 6 -69 13 -154 15 -190 17
-205 78 -732 115 -990 33 -228 88 -570 119 -734 l9 -48 -52 -57 c-93 -101
-233 -287 -224 -296 2 -2 24 21 48 52 41 51 189 192 252 239 23 18 35 20 95
13 37 -4 122 -12 188 -18 66 -6 210 -20 320 -31 182 -17 450 -43 740 -71 61
-5 148 -14 195 -20 47 -5 103 -9 126 -9 l41 0 36 -78 c143 -303 180 -781 106
-1347 -102 -776 -457 -1936 -746 -2436 l-50 -86 206 69 c355 119 580 176 728
185 81 5 101 3 180 -22 48 -15 110 -39 138 -52 48 -25 186 -153 237 -222 l25
-33 16 70 c30 134 94 224 193 273 97 47 266 25 531 -70 160 -57 421 -165 514
-211 43 -22 82 -40 86 -40 4 0 -26 22 -67 49 -245 162 -603 517 -685 681 -160
318 -377 1665 -545 3375 -27 275 -63 642 -80 815 -17 173 -51 519 -75 767 -25
249 -45 459 -45 467 0 19 21 22 255 36 363 22 402 27 470 58 142 67 292 272
421 577 l43 100 93 7 c52 4 135 14 185 23 95 16 290 69 302 81 3 4 -7 4 -22 0
-88 -21 -240 -36 -368 -36 -80 0 -148 2 -151 5 -2 3 22 85 54 183 97 289 155
510 263 1001 86 392 137 641 142 707 7 73 -14 150 -56 213 l-29 44 87 116
c101 135 178 245 245 351 52 83 61 92 -120 -110 -57 -63 -141 -155 -187 -205
l-84 -90 -59 41 c-74 52 -157 94 -257 133 -87 33 -83 35 -91 -49 -3 -30 -23
-197 -45 -370 -70 -548 -69 -540 -80 -540 -10 0 -191 118 -241 158 l-45 35 45
-47 c25 -27 86 -82 135 -124 50 -41 93 -78 97 -81 4 -3 -4 -71 -18 -151 -70
-417 -161 -765 -238 -917 -67 -134 -178 -235 -294 -269 -31 -9 -64 -19 -72
-22 -26 -8 -92 -1 -154 18 -78 25 -158 81 -196 137 -89 136 -97 244 -46 698
56 507 169 1634 258 2594 l23 245 89 75 c50 42 101 87 115 100 l26 23 -26 -15
c-15 -9 -64 -39 -108 -68 -45 -28 -83 -50 -85 -48 -2 2 3 69 11 149 8 80 36
376 64 658 l49 514 118 126 c103 112 223 245 302 336 l25 30 -36 -30 c-20 -16
-103 -87 -185 -158 -219 -190 -207 -181 -255 -167 -147 44 -448 26 -720 -43
-52 -14 -101 -27 -109 -30 -10 -4 -27 13 -53 49 -100 144 -294 359 -442 488
-58 52 -64 55 -37 22z"/>
</g>
</svg>
