<?xml version="1.0" standalone="no"?>
<!DOCTYPE svg PUBLIC "-//W3C//DTD SVG 20010904//EN"
 "http://www.w3.org/TR/2001/REC-SVG-20010904/DTD/svg10.dtd">
<svg version="1.0" xmlns="http://www.w3.org/2000/svg"
 width="640.000000pt" height="1280.000000pt" viewBox="0 0 640.000000 1280.000000"
 preserveAspectRatio="xMidYMid meet">
<metadata>
Created by potrace 1.15, written by Peter Selinger 2001-2017
</metadata>
<g transform="translate(0.000000,1280.000000) scale(0.100000,-0.100000)"
fill="#000000" stroke="none">
<path d="M4803 12613 c-50 -76 -175 -257 -279 -402 l-188 -263 -71 6 c-487 44
-795 28 -1029 -53 -206 -72 -279 -203 -278 -499 0 -101 -2 -112 -16 -108 -10
3 -105 26 -212 51 -107 26 -242 57 -299 71 -57 14 -105 24 -106 22 -2 -2 128
-48 288 -102 385 -131 357 -118 357 -159 0 -39 18 -164 54 -367 14 -80 41
-237 60 -350 20 -113 45 -257 56 -320 11 -63 20 -121 20 -127 0 -22 -205 -113
-390 -174 -47 -15 -78 -28 -69 -28 22 -1 293 74 388 108 71 24 81 26 85 12 8
-25 45 -265 61 -391 31 -251 11 -1141 -45 -1915 -5 -77 -14 -212 -20 -300 -11
-174 -25 -365 -40 -545 -5 -63 -14 -176 -20 -250 -23 -293 -31 -379 -41 -485
-30 -324 -50 -539 -56 -609 l-6 -79 -43 -19 c-127 -56 -360 -83 -509 -59 -92
15 -211 54 -238 78 -83 76 -120 357 -98 756 21 382 64 781 121 1132 109 670
131 798 135 806 17 26 355 251 486 323 46 25 80 46 74 46 -16 0 -364 -174
-455 -229 -47 -27 -86 -46 -88 -41 -2 5 13 106 32 224 20 119 36 225 36 236 0
26 -192 121 -305 150 -174 45 -418 48 -465 5 -18 -16 -19 -15 -29 22 -18 71
-31 157 -31 212 0 40 -3 52 -10 41 -11 -16 -5 -137 11 -258 10 -67 9 -77 -15
-136 -113 -283 -183 -958 -212 -2048 l-7 -256 -111 -6 c-61 -3 -208 -8 -326
-12 -118 -3 -255 -9 -305 -13 -80 -6 -61 -8 175 -20 146 -7 331 -18 412 -25
l146 -11 4 -832 c2 -457 6 -834 10 -838 3 -4 55 -2 114 4 59 6 109 10 110 8 2
-1 -22 -36 -53 -77 l-55 -75 79 81 78 82 115 11 c63 7 153 16 200 21 47 6 213
23 370 40 157 17 323 34 370 40 47 5 111 12 142 15 l57 6 5 -33 c3 -18 11
-103 16 -188 6 -85 15 -211 20 -280 5 -69 14 -188 20 -265 6 -77 15 -198 21
-270 52 -669 47 -1520 -12 -1965 -72 -549 -262 -1020 -560 -1390 -75 -93 -179
-198 -249 -252 -34 -26 -32 -26 50 8 147 62 476 178 655 232 235 71 416 96
528 73 111 -24 192 -74 312 -195 61 -62 122 -132 135 -158 14 -27 28 -48 31
-48 4 0 10 12 14 27 23 95 129 244 226 320 116 91 283 93 667 7 146 -33 368
-93 523 -144 68 -21 124 -38 126 -37 1 2 -28 16 -65 31 -288 123 -562 340
-702 556 -285 441 -654 1556 -819 2475 -159 883 -167 1479 -41 2930 17 187 30
341 30 342 0 11 375 248 540 341 30 18 52 32 48 32 -15 0 -347 -161 -461 -224
-65 -35 -117 -60 -117 -54 0 43 100 1014 161 1553 62 561 169 1479 173 1491 3
6 111 15 297 23 541 23 588 29 676 81 l33 20 53 -34 c62 -40 158 -89 227 -116
57 -22 69 -17 14 6 -48 20 -157 86 -216 131 l-47 36 41 46 c81 93 157 258 198
434 23 98 121 867 122 953 0 57 -9 87 -44 135 -9 14 2 35 65 125 42 60 113
156 157 214 l81 105 -72 -75 c-40 -41 -121 -132 -181 -202 -106 -123 -110
-127 -136 -116 -37 15 -235 13 -302 -4 l-55 -13 -6 -310 c-3 -171 -10 -338
-14 -371 l-7 -62 -71 55 c-39 30 -85 61 -102 69 l-30 15 30 -23 c17 -12 62
-54 102 -93 l72 -70 -9 -60 c-34 -225 -56 -314 -99 -408 -57 -126 -174 -193
-394 -228 -77 -12 -331 -8 -344 5 -4 4 51 452 121 997 70 545 124 995 119 999
-4 5 -18 10 -30 12 -21 3 -20 8 34 98 281 477 420 720 411 720 -3 0 -45 -62
-95 -137z"/>
</g>
</svg>
