<?xml version="1.0" standalone="no"?>
<!DOCTYPE svg PUBLIC "-//W3C//DTD SVG 20010904//EN"
 "http://www.w3.org/TR/2001/REC-SVG-20010904/DTD/svg10.dtd">
<svg version="1.0" xmlns="http://www.w3.org/2000/svg"
 width="640.000000pt" height="1280.000000pt" viewBox="0 0 640.000000 1280.000000"
 preserveAspectRatio="xMidYMid meet">
<metadata>
Created by potrace 1.15, written by Peter Selinger 2001-2017
</metadata>
<g transform="translate(0.000000,1280.000000) scale(0.100000,-0.100000)"
fill="#000000" stroke="none">
<path d="M3173 12780 c-123 -75 -203 -356 -243 -855 -18 -222 -24 -894 -11
-1265 21 -621 73 -1442 106 -1681 4 -33 2 -37 -35 -58 -62 -35 -139 -54 -218
-54 -63 0 -81 4 -139 34 -72 36 -106 75 -123 140 -66 245 -24 881 126 1874 48
320 45 395 -17 452 -43 39 -89 44 -201 23 -56 -11 -102 -21 -103 -22 -7 -8
-94 -399 -145 -658 -87 -436 -146 -825 -170 -1134 -13 -166 -13 -458 0 -566
51 -417 254 -670 655 -814 96 -34 195 -56 290 -64 l80 -7 7 -115 c4 -63 16
-299 27 -525 50 -988 82 -1620 96 -1885 l15 -285 -23 -17 c-68 -52 -437 -230
-655 -317 -277 -110 -444 -153 -595 -153 -76 0 -95 3 -145 28 -51 26 -60 36
-89 94 -39 79 -58 172 -72 349 -23 287 -9 684 39 1156 109 1056 122 1217 105
1297 -24 116 -104 176 -249 185 -78 5 -196 -9 -225 -26 -13 -8 -19 -54 -106
-811 -81 -708 -105 -1057 -105 -1540 0 -538 48 -891 143 -1060 69 -123 209
-221 382 -267 98 -25 475 -26 615 0 312 57 587 136 863 247 64 27 117 46 117
44 0 -3 18 -222 40 -487 103 -1254 126 -1814 87 -2080 -52 -347 -179 -845
-376 -1476 -39 -124 -69 -226 -67 -228 2 -2 36 4 77 12 206 44 403 59 460 37
75 -29 127 -108 155 -232 l16 -68 106 66 c141 86 308 165 416 197 162 46 369
27 691 -64 60 -17 66 -17 45 -3 -56 37 -197 183 -265 273 -270 361 -451 838
-565 1494 -24 140 -90 659 -102 808 l-3 39 165 -1 c241 -2 673 55 763 100 104
53 185 183 236 382 55 211 65 340 65 762 0 393 -11 576 -55 915 -43 338 -64
419 -130 494 -52 59 -83 70 -180 63 -44 -3 -82 -7 -83 -9 -2 -1 10 -210 26
-463 24 -383 28 -500 23 -700 -11 -482 -61 -704 -182 -815 -147 -135 -324
-179 -568 -143 l-120 18 -11 235 c-7 129 -17 336 -23 460 -6 124 -25 500 -41
835 -16 336 -34 702 -40 815 -47 945 -60 1222 -60 1270 l0 56 243 1 c238 2
466 18 669 48 166 25 367 65 412 82 187 73 299 303 341 702 19 174 19 375 0
632 -13 189 -37 566 -50 804 -3 55 -10 213 -15 350 -10 271 -20 332 -69 420
-18 32 -44 60 -72 77 l-44 28 -98 -19 c-53 -10 -100 -20 -102 -23 -3 -3 -1
-124 5 -269 5 -145 15 -403 21 -574 24 -655 -17 -1234 -102 -1432 -48 -114
-153 -172 -349 -194 -148 -17 -342 3 -662 67 -149 29 -272 55 -274 56 -1 2 4
167 11 368 27 720 39 1861 27 2415 -28 1199 -89 1787 -211 2051 -56 119 -106
148 -178 104z"/>
</g>
</svg>
