<?xml version="1.0" standalone="no"?>
<!DOCTYPE svg PUBLIC "-//W3C//DTD SVG 20010904//EN"
 "http://www.w3.org/TR/2001/REC-SVG-20010904/DTD/svg10.dtd">
<svg version="1.0" xmlns="http://www.w3.org/2000/svg"
 width="640.000000pt" height="1280.000000pt" viewBox="0 0 640.000000 1280.000000"
 preserveAspectRatio="xMidYMid meet">
<metadata>
Created by potrace 1.15, written by Peter Selinger 2001-2017
</metadata>
<g transform="translate(0.000000,1280.000000) scale(0.100000,-0.100000)"
fill="#000000" stroke="none">
<path d="M3561 12779 c-213 -108 -346 -766 -416 -2049 -46 -830 -50 -2721 -10
-3790 21 -552 26 -488 -43 -533 -180 -115 -418 -150 -558 -82 -95 46 -181 140
-242 265 -90 183 -132 398 -153 785 -20 391 10 1015 81 1635 53 458 102 746
190 1102 21 87 44 193 50 238 25 179 -40 306 -177 346 -87 25 -248 20 -368
-11 -55 -14 -101 -28 -104 -30 -6 -6 -64 -344 -116 -670 -198 -1257 -305
-2314 -305 -3025 0 -749 81 -1050 351 -1304 130 -122 322 -206 542 -235 222
-30 568 2 792 73 l75 24 4 -32 c7 -44 73 -869 91 -1131 52 -775 58 -1089 26
-1291 -70 -450 -278 -1276 -626 -2494 -74 -261 -138 -481 -140 -489 -4 -10 1
-12 17 -7 104 30 338 89 403 101 130 26 318 31 409 11 95 -22 215 -81 282
-140 l52 -46 24 38 c78 116 233 246 343 288 79 30 266 26 418 -10 131 -30 319
-88 459 -142 49 -19 91 -34 93 -34 2 0 -32 51 -75 112 -95 136 -207 315 -290
463 -124 223 -334 671 -397 849 -123 350 -208 1085 -258 2251 -35 819 -40
1206 -39 2810 0 1571 1 1611 27 2205 73 1657 99 2864 69 3170 -17 165 -47 347
-72 440 -46 164 -130 294 -219 336 -58 28 -138 29 -190 3z"/>
</g>
</svg>
