<?xml version="1.0" standalone="no"?>
<!DOCTYPE svg PUBLIC "-//W3C//DTD SVG 20010904//EN"
 "http://www.w3.org/TR/2001/REC-SVG-20010904/DTD/svg10.dtd">
<svg version="1.0" xmlns="http://www.w3.org/2000/svg"
 width="685.000000pt" height="1280.000000pt" viewBox="0 0 685.000000 1280.000000"
 preserveAspectRatio="xMidYMid meet">
<metadata>
Created by potrace 1.15, written by Peter Selinger 2001-2017
</metadata>
<g transform="translate(0.000000,1280.000000) scale(0.100000,-0.100000)"
fill="#000000" stroke="none">
<path d="M1530 12748 c-62 -54 -171 -120 -330 -200 -136 -68 -156 -76 -165
-61 -64 103 -135 149 -253 161 -83 9 -183 0 -253 -23 l-47 -16 -7 -217 c-3
-119 -10 -329 -15 -467 -6 -137 -10 -315 -10 -395 0 -80 -3 -189 -7 -243 l-6
-98 -21 19 c-22 20 -289 211 -316 226 -8 5 39 -43 105 -105 66 -63 146 -138
177 -169 l57 -55 -10 -595 c-15 -802 -6 -2521 15 -2940 16 -328 31 -542 45
-670 5 -41 8 -76 7 -77 -1 -1 -73 39 -161 88 -202 114 -316 174 -290 155 11
-8 120 -89 241 -180 l222 -164 12 -74 c33 -205 74 -316 132 -360 77 -58 266
-138 572 -241 l189 -63 -114 -51 c-63 -28 -129 -56 -147 -63 -78 -30 -13 -15
159 36 l184 55 240 -72 c683 -203 951 -324 1016 -456 l24 -48 -1 -615 c0 -839
-34 -1687 -95 -2395 -43 -498 -92 -822 -160 -1061 -132 -463 -461 -925 -919
-1293 -15 -12 42 7 140 46 652 259 912 285 1127 113 29 -23 67 -64 84 -91 18
-27 35 -48 38 -46 3 1 80 39 171 84 172 85 322 141 450 168 184 40 526 26 780
-32 14 -3 0 10 -35 32 -279 171 -585 543 -714 867 -91 230 -111 590 -55 1004
14 107 172 810 193 859 7 17 28 24 112 39 233 42 606 96 1014 146 193 24 231
33 296 65 96 49 216 186 273 312 l18 41 142 -120 c77 -67 167 -146 200 -177
32 -31 57 -51 55 -44 -2 6 -78 95 -169 198 -91 103 -171 197 -179 209 -12 21
-11 34 12 117 79 283 117 663 98 984 -29 487 -61 1108 -59 1110 2 1 37 -2 78
-7 80 -10 125 -3 235 34 88 30 261 120 371 194 l96 64 166 -109 c167 -108 282
-177 282 -168 0 2 -19 17 -42 32 -67 44 -353 290 -353 304 0 3 19 38 42 76 85
141 126 299 143 556 18 271 -14 614 -70 743 l-19 46 40 68 c53 86 158 239 222
322 l50 65 -92 -90 c-51 -49 -133 -138 -182 -196 l-90 -106 -40 13 c-34 12
-44 12 -68 -1 -60 -30 -70 -140 -46 -455 39 -495 -2 -716 -164 -880 -80 -81
-181 -134 -289 -151 -67 -11 -86 -10 -226 16 l-154 29 -6 160 c-15 364 -36
807 -42 898 l-6 97 54 58 c86 92 254 289 233 273 -11 -8 -80 -69 -153 -134
-73 -65 -134 -117 -136 -115 -1 2 -10 112 -19 244 -22 303 -43 507 -68 660
-36 220 -72 291 -177 342 -52 25 -66 28 -157 27 -56 -1 -126 -9 -159 -18 -48
-13 -63 -13 -77 -3 -134 98 -234 189 -273 247 -29 44 -17 5 15 -46 17 -27 79
-98 139 -159 l108 -110 11 -650 c19 -1088 30 -1661 41 -2080 5 -220 14 -587
20 -815 6 -228 15 -550 21 -715 16 -421 16 -463 -5 -510 -32 -76 -104 -128
-209 -154 -62 -15 -217 -16 -332 -1 -197 24 -561 81 -581 89 -12 5 -30 29 -41
53 -78 168 -110 603 -99 1348 8 635 15 798 96 2385 50 989 45 914 67 931 10 8
104 71 208 141 191 127 338 233 351 255 8 12 7 12 -71 -38 -56 -36 -495 -257
-500 -252 -2 2 0 93 5 203 17 373 32 989 28 1148 l-3 159 142 92 c148 97 273
194 299 234 9 13 -10 3 -47 -28 -85 -68 -398 -227 -410 -209 -5 8 -9 17 -9 21
0 4 -26 34 -57 68 -61 66 -128 106 -228 135 -86 25 -273 24 -383 -3 -46 -11
-85 -21 -87 -23 -2 -3 -8 -512 -14 -1133 -6 -621 -12 -1131 -14 -1132 -2 -2
-22 21 -46 51 -49 61 -180 190 -281 275 -62 53 -63 53 -30 13 19 -22 72 -85
117 -138 88 -105 175 -229 215 -310 l25 -50 -6 -772 c-3 -424 -9 -774 -13
-778 -7 -8 -84 19 -293 103 -647 259 -1124 496 -1313 653 -126 104 -140 135
-162 359 -22 236 -50 981 -50 1357 l0 182 59 68 c73 85 199 206 274 262 97 73
72 64 -73 -27 -49 -31 -146 -104 -237 -178 l-32 -26 -1 319 c-1 808 -22 2280
-36 2635 l-6 146 165 111 c105 70 197 141 254 195 87 84 111 114 43 54z"/>
</g>
</svg>
